<mxfile host="Electron" modified="2025-01-17T09:46:04.232Z" agent="Mozilla/5.0 (Windows NT 10.0; Win64; x64) AppleWebKit/537.36 (KHTML, like Gecko) draw.io/21.6.1 Chrome/112.0.5615.204 Electron/24.6.1 Safari/537.36" etag="-9PRIWBZVvEFjMcuA9-a" version="21.6.1" type="device">
  <diagram name="Page-1" id="e7e014a7-5840-1c2e-5031-d8a46d1fe8dd">
    <mxGraphModel dx="6907" dy="4040" grid="1" gridSize="10" guides="1" tooltips="1" connect="1" arrows="1" fold="1" page="1" pageScale="1" pageWidth="1169" pageHeight="826" background="none" math="0" shadow="0">
      <root>
        <mxCell id="0" />
        <mxCell id="1" parent="0" />
        <mxCell id="2" value="User" style="swimlane;whiteSpace=wrap;labelBackgroundColor=none;" parent="1" vertex="1">
          <mxGeometry x="40" y="40" width="280" height="490" as="geometry" />
        </mxCell>
        <mxCell id="q0-vvOxoMpotTMaAw7Id-45" value="" style="edgeStyle=orthogonalEdgeStyle;rounded=0;orthogonalLoop=1;jettySize=auto;html=1;" parent="2" source="5" target="q0-vvOxoMpotTMaAw7Id-51" edge="1">
          <mxGeometry relative="1" as="geometry">
            <mxPoint x="139.98275862068965" y="82" as="targetPoint" />
            <Array as="points" />
          </mxGeometry>
        </mxCell>
        <mxCell id="5" value="" style="ellipse;shape=startState;fillColor=#000000;strokeColor=#ff0000;" parent="2" vertex="1">
          <mxGeometry x="185" y="80" width="30" height="30" as="geometry" />
        </mxCell>
        <mxCell id="q0-vvOxoMpotTMaAw7Id-51" value="&lt;span style=&quot;color: rgb(0, 0, 0); font-family: Helvetica; font-size: 10px; font-style: normal; font-variant-ligatures: normal; font-variant-caps: normal; font-weight: 400; letter-spacing: normal; orphans: 2; text-align: center; text-indent: 0px; text-transform: none; widows: 2; word-spacing: 0px; -webkit-text-stroke-width: 0px; background-color: rgb(251, 251, 251); text-decoration-thickness: initial; text-decoration-style: initial; text-decoration-color: initial; float: none; display: inline !important;&quot;&gt;1. Access to &quot;Cart&quot; page&lt;/span&gt;" style="rounded=1;whiteSpace=wrap;html=1;verticalAlign=middle;" parent="2" vertex="1">
          <mxGeometry x="65" y="160" width="150" height="58" as="geometry" />
        </mxCell>
        <mxCell id="bUwD3FaFitT1GLIlqr40-110" value="" style="edgeStyle=orthogonalEdgeStyle;rounded=0;orthogonalLoop=1;jettySize=auto;html=1;" parent="2" target="5" edge="1">
          <mxGeometry relative="1" as="geometry">
            <mxPoint x="140" y="95" as="sourcePoint" />
          </mxGeometry>
        </mxCell>
        <mxCell id="bUwD3FaFitT1GLIlqr40-21" value="UC07.1 - View Cart" style="text;html=1;align=center;verticalAlign=middle;resizable=0;points=[];autosize=1;strokeColor=none;fillColor=none;" parent="2" vertex="1">
          <mxGeometry x="5" y="20" width="130" height="30" as="geometry" />
        </mxCell>
        <mxCell id="bUwD3FaFitT1GLIlqr40-117" value="" style="edgeStyle=orthogonalEdgeStyle;rounded=0;orthogonalLoop=1;jettySize=auto;html=1;" parent="2" source="bUwD3FaFitT1GLIlqr40-116" target="5" edge="1">
          <mxGeometry relative="1" as="geometry" />
        </mxCell>
        <mxCell id="bUwD3FaFitT1GLIlqr40-116" value="&lt;font style=&quot;font-size: 10px;&quot;&gt;User is logged in&lt;/font&gt;" style="shape=note;size=20;whiteSpace=wrap;html=1;" parent="2" vertex="1">
          <mxGeometry x="30" y="70" width="120" height="50" as="geometry" />
        </mxCell>
        <mxCell id="3" value="System" style="swimlane;whiteSpace=wrap" parent="1" vertex="1">
          <mxGeometry x="320" y="40" width="290" height="490" as="geometry" />
        </mxCell>
        <mxCell id="q0-vvOxoMpotTMaAw7Id-52" value="&lt;font style=&quot;font-size: 10px;&quot;&gt;2. Retrieve list of products in user&#39;s shopping cart&lt;/font&gt;" style="rounded=1;whiteSpace=wrap;html=1;verticalAlign=middle;" parent="3" vertex="1">
          <mxGeometry x="67.5" y="82" width="155" height="58" as="geometry" />
        </mxCell>
        <mxCell id="bUwD3FaFitT1GLIlqr40-51" style="edgeStyle=orthogonalEdgeStyle;rounded=0;orthogonalLoop=1;jettySize=auto;html=1;" parent="3" source="bUwD3FaFitT1GLIlqr40-50" target="21" edge="1">
          <mxGeometry relative="1" as="geometry" />
        </mxCell>
        <mxCell id="bUwD3FaFitT1GLIlqr40-50" value="&lt;font style=&quot;font-size: 10px;&quot;&gt;3. Check the results&lt;/font&gt;" style="rounded=1;whiteSpace=wrap;html=1;verticalAlign=middle;" parent="3" vertex="1">
          <mxGeometry x="95.12" y="170" width="99.75" height="58" as="geometry" />
        </mxCell>
        <mxCell id="q0-vvOxoMpotTMaAw7Id-54" style="edgeStyle=orthogonalEdgeStyle;rounded=0;orthogonalLoop=1;jettySize=auto;html=1;" parent="3" source="q0-vvOxoMpotTMaAw7Id-52" target="bUwD3FaFitT1GLIlqr40-50" edge="1">
          <mxGeometry relative="1" as="geometry" />
        </mxCell>
        <mxCell id="bUwD3FaFitT1GLIlqr40-52" style="edgeStyle=orthogonalEdgeStyle;rounded=0;orthogonalLoop=1;jettySize=auto;html=1;" parent="3" source="21" target="q0-vvOxoMpotTMaAw7Id-57" edge="1">
          <mxGeometry relative="1" as="geometry">
            <Array as="points">
              <mxPoint x="73" y="280" />
            </Array>
          </mxGeometry>
        </mxCell>
        <mxCell id="bUwD3FaFitT1GLIlqr40-54" style="edgeStyle=orthogonalEdgeStyle;rounded=0;orthogonalLoop=1;jettySize=auto;html=1;" parent="3" source="21" target="q0-vvOxoMpotTMaAw7Id-58" edge="1">
          <mxGeometry relative="1" as="geometry">
            <Array as="points">
              <mxPoint x="220" y="280" />
            </Array>
          </mxGeometry>
        </mxCell>
        <mxCell id="21" value="Have results?" style="rhombus;fillColor=#ffffc0;strokeColor=#ff0000;whiteSpace=wrap;fontSize=10;" parent="3" vertex="1">
          <mxGeometry x="105" y="260" width="80" height="40" as="geometry" />
        </mxCell>
        <mxCell id="q0-vvOxoMpotTMaAw7Id-57" value="&lt;font style=&quot;font-size: 10px;&quot;&gt;3.1. Display list of products in cart&lt;/font&gt;" style="rounded=1;whiteSpace=wrap;html=1;verticalAlign=middle;" parent="3" vertex="1">
          <mxGeometry x="20.5" y="313" width="99.5" height="60" as="geometry" />
        </mxCell>
        <mxCell id="q0-vvOxoMpotTMaAw7Id-58" value="&lt;font style=&quot;font-size: 10px;&quot;&gt;3.2. Display the message &quot;Cart is empty&quot;&lt;/font&gt;" style="rounded=1;whiteSpace=wrap;html=1;verticalAlign=middle;" parent="3" vertex="1">
          <mxGeometry x="170" y="315" width="100" height="58" as="geometry" />
        </mxCell>
        <mxCell id="q0-vvOxoMpotTMaAw7Id-59" value="" style="ellipse;html=1;shape=endState;fillColor=#000000;strokeColor=#ff0000;fontSize=10;" parent="3" vertex="1">
          <mxGeometry x="130" y="437" width="30" height="30" as="geometry" />
        </mxCell>
        <mxCell id="q0-vvOxoMpotTMaAw7Id-64" style="edgeStyle=orthogonalEdgeStyle;rounded=0;orthogonalLoop=1;jettySize=auto;html=1;" parent="3" source="q0-vvOxoMpotTMaAw7Id-57" target="q0-vvOxoMpotTMaAw7Id-59" edge="1">
          <mxGeometry relative="1" as="geometry">
            <Array as="points">
              <mxPoint x="70" y="409" />
              <mxPoint x="145" y="409" />
            </Array>
          </mxGeometry>
        </mxCell>
        <mxCell id="q0-vvOxoMpotTMaAw7Id-65" style="edgeStyle=orthogonalEdgeStyle;rounded=0;orthogonalLoop=1;jettySize=auto;html=1;" parent="3" source="q0-vvOxoMpotTMaAw7Id-58" target="q0-vvOxoMpotTMaAw7Id-59" edge="1">
          <mxGeometry relative="1" as="geometry">
            <Array as="points">
              <mxPoint x="220" y="409" />
              <mxPoint x="145" y="409" />
            </Array>
          </mxGeometry>
        </mxCell>
        <mxCell id="q0-vvOxoMpotTMaAw7Id-66" value="&lt;font size=&quot;1&quot;&gt;yes&lt;/font&gt;" style="text;html=1;align=center;verticalAlign=middle;resizable=0;points=[];autosize=1;strokeColor=none;fillColor=none;" parent="3" vertex="1">
          <mxGeometry x="80" y="270" width="40" height="30" as="geometry" />
        </mxCell>
        <mxCell id="q0-vvOxoMpotTMaAw7Id-67" value="&lt;font size=&quot;1&quot;&gt;no&lt;/font&gt;" style="text;html=1;align=center;verticalAlign=middle;resizable=0;points=[];autosize=1;strokeColor=none;fillColor=none;" parent="3" vertex="1">
          <mxGeometry x="180" y="270" width="30" height="30" as="geometry" />
        </mxCell>
        <mxCell id="q0-vvOxoMpotTMaAw7Id-49" style="edgeStyle=orthogonalEdgeStyle;rounded=0;orthogonalLoop=1;jettySize=auto;html=1;" parent="1" source="q0-vvOxoMpotTMaAw7Id-51" target="q0-vvOxoMpotTMaAw7Id-52" edge="1">
          <mxGeometry relative="1" as="geometry">
            <mxPoint x="244.5" y="147" as="sourcePoint" />
            <mxPoint x="396" y="171" as="targetPoint" />
            <Array as="points">
              <mxPoint x="280" y="229" />
              <mxPoint x="280" y="150" />
            </Array>
          </mxGeometry>
        </mxCell>
        <mxCell id="bUwD3FaFitT1GLIlqr40-22" value="User" style="swimlane;whiteSpace=wrap;labelBackgroundColor=none;" parent="1" vertex="1">
          <mxGeometry x="1400" y="20" width="280" height="590" as="geometry" />
        </mxCell>
        <mxCell id="bUwD3FaFitT1GLIlqr40-23" value="" style="edgeStyle=orthogonalEdgeStyle;rounded=0;orthogonalLoop=1;jettySize=auto;html=1;" parent="bUwD3FaFitT1GLIlqr40-22" source="bUwD3FaFitT1GLIlqr40-24" target="bUwD3FaFitT1GLIlqr40-25" edge="1">
          <mxGeometry relative="1" as="geometry">
            <mxPoint x="139.98275862068965" y="82" as="targetPoint" />
            <Array as="points" />
          </mxGeometry>
        </mxCell>
        <mxCell id="bUwD3FaFitT1GLIlqr40-24" value="" style="ellipse;shape=startState;fillColor=#000000;strokeColor=#ff0000;" parent="bUwD3FaFitT1GLIlqr40-22" vertex="1">
          <mxGeometry x="190" y="70" width="30" height="30" as="geometry" />
        </mxCell>
        <mxCell id="pBIfOtYc9oAZ0GzIeyk_-44" value="" style="edgeStyle=orthogonalEdgeStyle;rounded=0;orthogonalLoop=1;jettySize=auto;html=1;" edge="1" parent="bUwD3FaFitT1GLIlqr40-22" source="bUwD3FaFitT1GLIlqr40-25" target="pBIfOtYc9oAZ0GzIeyk_-43">
          <mxGeometry relative="1" as="geometry" />
        </mxCell>
        <mxCell id="bUwD3FaFitT1GLIlqr40-25" value="&lt;span style=&quot;color: rgb(0, 0, 0); font-family: Helvetica; font-size: 10px; font-style: normal; font-variant-ligatures: normal; font-variant-caps: normal; font-weight: 400; letter-spacing: normal; orphans: 2; text-align: center; text-indent: 0px; text-transform: none; widows: 2; word-spacing: 0px; -webkit-text-stroke-width: 0px; background-color: rgb(251, 251, 251); text-decoration-thickness: initial; text-decoration-style: initial; text-decoration-color: initial; float: none; display: inline !important;&quot;&gt;1. Access to the &quot;Cart&quot; page&lt;/span&gt;" style="rounded=1;whiteSpace=wrap;html=1;verticalAlign=middle;" parent="bUwD3FaFitT1GLIlqr40-22" vertex="1">
          <mxGeometry x="60" y="150" width="150" height="58" as="geometry" />
        </mxCell>
        <mxCell id="bUwD3FaFitT1GLIlqr40-112" value="UC07.3 - Update cart" style="text;html=1;align=center;verticalAlign=middle;resizable=0;points=[];autosize=1;strokeColor=none;fillColor=none;" parent="bUwD3FaFitT1GLIlqr40-22" vertex="1">
          <mxGeometry x="-5" y="20" width="140" height="30" as="geometry" />
        </mxCell>
        <mxCell id="bUwD3FaFitT1GLIlqr40-113" value="" style="edgeStyle=orthogonalEdgeStyle;rounded=0;orthogonalLoop=1;jettySize=auto;html=1;" parent="bUwD3FaFitT1GLIlqr40-22" source="bUwD3FaFitT1GLIlqr40-111" target="bUwD3FaFitT1GLIlqr40-24" edge="1">
          <mxGeometry relative="1" as="geometry" />
        </mxCell>
        <mxCell id="bUwD3FaFitT1GLIlqr40-111" value="&lt;font style=&quot;font-size: 10px;&quot;&gt;User is logged in and in UC07.1&lt;/font&gt;" style="shape=note;size=20;whiteSpace=wrap;html=1;" parent="bUwD3FaFitT1GLIlqr40-22" vertex="1">
          <mxGeometry x="25" y="60" width="120" height="50" as="geometry" />
        </mxCell>
        <mxCell id="pBIfOtYc9oAZ0GzIeyk_-43" value="&lt;font style=&quot;font-size: 10px;&quot;&gt;2. Modifies the quantity of product in the user&#39;s cart&lt;/font&gt;" style="rounded=1;whiteSpace=wrap;html=1;verticalAlign=middle;" vertex="1" parent="bUwD3FaFitT1GLIlqr40-22">
          <mxGeometry x="55.63000000000011" y="240" width="158.75" height="58" as="geometry" />
        </mxCell>
        <mxCell id="bUwD3FaFitT1GLIlqr40-27" value="System" style="swimlane;whiteSpace=wrap" parent="1" vertex="1">
          <mxGeometry x="1680" y="20" width="360" height="590" as="geometry" />
        </mxCell>
        <mxCell id="bUwD3FaFitT1GLIlqr40-37" value="" style="ellipse;html=1;shape=endState;fillColor=#000000;strokeColor=#ff0000;fontSize=10;" parent="bUwD3FaFitT1GLIlqr40-27" vertex="1">
          <mxGeometry x="75.63" y="440" width="30" height="30" as="geometry" />
        </mxCell>
        <mxCell id="pBIfOtYc9oAZ0GzIeyk_-50" value="" style="edgeStyle=orthogonalEdgeStyle;rounded=0;orthogonalLoop=1;jettySize=auto;html=1;" edge="1" parent="bUwD3FaFitT1GLIlqr40-27" source="pBIfOtYc9oAZ0GzIeyk_-45" target="pBIfOtYc9oAZ0GzIeyk_-48">
          <mxGeometry relative="1" as="geometry" />
        </mxCell>
        <mxCell id="pBIfOtYc9oAZ0GzIeyk_-45" value="&lt;font style=&quot;font-size: 10px;&quot;&gt;3. Check quantity in stock&lt;/font&gt;" style="rounded=1;whiteSpace=wrap;html=1;verticalAlign=middle;" vertex="1" parent="bUwD3FaFitT1GLIlqr40-27">
          <mxGeometry x="100.63000000000011" y="100" width="158.75" height="58" as="geometry" />
        </mxCell>
        <mxCell id="pBIfOtYc9oAZ0GzIeyk_-51" style="edgeStyle=orthogonalEdgeStyle;rounded=0;orthogonalLoop=1;jettySize=auto;html=1;" edge="1" parent="bUwD3FaFitT1GLIlqr40-27" source="pBIfOtYc9oAZ0GzIeyk_-48" target="pBIfOtYc9oAZ0GzIeyk_-49">
          <mxGeometry relative="1" as="geometry">
            <Array as="points">
              <mxPoint x="259" y="210" />
            </Array>
          </mxGeometry>
        </mxCell>
        <mxCell id="pBIfOtYc9oAZ0GzIeyk_-53" style="edgeStyle=orthogonalEdgeStyle;rounded=0;orthogonalLoop=1;jettySize=auto;html=1;" edge="1" parent="bUwD3FaFitT1GLIlqr40-27" source="pBIfOtYc9oAZ0GzIeyk_-48" target="pBIfOtYc9oAZ0GzIeyk_-52">
          <mxGeometry relative="1" as="geometry">
            <Array as="points">
              <mxPoint x="90" y="210" />
            </Array>
          </mxGeometry>
        </mxCell>
        <mxCell id="pBIfOtYc9oAZ0GzIeyk_-48" value="Is in stock?" style="rhombus;fillColor=#ffffc0;strokeColor=#ff0000;whiteSpace=wrap;fontSize=10;" vertex="1" parent="bUwD3FaFitT1GLIlqr40-27">
          <mxGeometry x="140" y="190" width="80" height="40" as="geometry" />
        </mxCell>
        <mxCell id="pBIfOtYc9oAZ0GzIeyk_-62" value="" style="edgeStyle=orthogonalEdgeStyle;rounded=0;orthogonalLoop=1;jettySize=auto;html=1;" edge="1" parent="bUwD3FaFitT1GLIlqr40-27" source="pBIfOtYc9oAZ0GzIeyk_-49" target="pBIfOtYc9oAZ0GzIeyk_-61">
          <mxGeometry relative="1" as="geometry" />
        </mxCell>
        <mxCell id="pBIfOtYc9oAZ0GzIeyk_-49" value="&lt;font style=&quot;font-size: 10px;&quot;&gt;3.2. Display error message&lt;/font&gt;" style="rounded=1;whiteSpace=wrap;html=1;verticalAlign=middle;" vertex="1" parent="bUwD3FaFitT1GLIlqr40-27">
          <mxGeometry x="200" y="260" width="118.75" height="58" as="geometry" />
        </mxCell>
        <mxCell id="pBIfOtYc9oAZ0GzIeyk_-59" value="" style="edgeStyle=orthogonalEdgeStyle;rounded=0;orthogonalLoop=1;jettySize=auto;html=1;" edge="1" parent="bUwD3FaFitT1GLIlqr40-27" source="pBIfOtYc9oAZ0GzIeyk_-52" target="pBIfOtYc9oAZ0GzIeyk_-56">
          <mxGeometry relative="1" as="geometry" />
        </mxCell>
        <mxCell id="pBIfOtYc9oAZ0GzIeyk_-52" value="&lt;font style=&quot;font-size: 10px;&quot;&gt;3.1. Update quantity of the product in the cart&lt;/font&gt;" style="rounded=1;whiteSpace=wrap;html=1;verticalAlign=middle;" vertex="1" parent="bUwD3FaFitT1GLIlqr40-27">
          <mxGeometry x="31.25" y="260" width="118.75" height="58" as="geometry" />
        </mxCell>
        <mxCell id="pBIfOtYc9oAZ0GzIeyk_-54" value="yes" style="text;html=1;align=center;verticalAlign=middle;resizable=0;points=[];autosize=1;strokeColor=none;fillColor=none;" vertex="1" parent="bUwD3FaFitT1GLIlqr40-27">
          <mxGeometry x="90" y="200" width="40" height="30" as="geometry" />
        </mxCell>
        <mxCell id="pBIfOtYc9oAZ0GzIeyk_-55" value="no" style="text;html=1;align=center;verticalAlign=middle;resizable=0;points=[];autosize=1;strokeColor=none;fillColor=none;" vertex="1" parent="bUwD3FaFitT1GLIlqr40-27">
          <mxGeometry x="219.3800000000001" y="200" width="40" height="30" as="geometry" />
        </mxCell>
        <mxCell id="pBIfOtYc9oAZ0GzIeyk_-60" value="" style="edgeStyle=orthogonalEdgeStyle;rounded=0;orthogonalLoop=1;jettySize=auto;html=1;" edge="1" parent="bUwD3FaFitT1GLIlqr40-27" source="pBIfOtYc9oAZ0GzIeyk_-56" target="bUwD3FaFitT1GLIlqr40-37">
          <mxGeometry relative="1" as="geometry" />
        </mxCell>
        <mxCell id="pBIfOtYc9oAZ0GzIeyk_-56" value="&lt;font style=&quot;font-size: 10px;&quot;&gt;4. Refresh the cart to view the updated&lt;/font&gt;" style="rounded=1;whiteSpace=wrap;html=1;verticalAlign=middle;" vertex="1" parent="bUwD3FaFitT1GLIlqr40-27">
          <mxGeometry x="31.25" y="350" width="118.75" height="58" as="geometry" />
        </mxCell>
        <mxCell id="pBIfOtYc9oAZ0GzIeyk_-61" value="" style="ellipse;html=1;shape=endState;fillColor=#000000;strokeColor=#ff0000;fontSize=10;" vertex="1" parent="bUwD3FaFitT1GLIlqr40-27">
          <mxGeometry x="244.3800000000001" y="363" width="30" height="30" as="geometry" />
        </mxCell>
        <mxCell id="iPqSwQI-IjeFykvfGZ3u-23" value="User" style="swimlane;whiteSpace=wrap;labelBackgroundColor=none;" parent="1" vertex="1">
          <mxGeometry x="680" y="40" width="280" height="570" as="geometry" />
        </mxCell>
        <mxCell id="iPqSwQI-IjeFykvfGZ3u-24" value="" style="edgeStyle=orthogonalEdgeStyle;rounded=0;orthogonalLoop=1;jettySize=auto;html=1;" parent="iPqSwQI-IjeFykvfGZ3u-23" source="iPqSwQI-IjeFykvfGZ3u-25" target="iPqSwQI-IjeFykvfGZ3u-26" edge="1">
          <mxGeometry relative="1" as="geometry">
            <mxPoint x="139.98275862068965" y="82" as="targetPoint" />
            <Array as="points" />
          </mxGeometry>
        </mxCell>
        <mxCell id="iPqSwQI-IjeFykvfGZ3u-25" value="" style="ellipse;shape=startState;fillColor=#000000;strokeColor=#ff0000;" parent="iPqSwQI-IjeFykvfGZ3u-23" vertex="1">
          <mxGeometry x="190" y="70" width="30" height="30" as="geometry" />
        </mxCell>
        <mxCell id="iPqSwQI-IjeFykvfGZ3u-67" style="edgeStyle=orthogonalEdgeStyle;rounded=0;orthogonalLoop=1;jettySize=auto;html=1;" parent="iPqSwQI-IjeFykvfGZ3u-23" source="iPqSwQI-IjeFykvfGZ3u-26" target="iPqSwQI-IjeFykvfGZ3u-64" edge="1">
          <mxGeometry relative="1" as="geometry" />
        </mxCell>
        <mxCell id="iPqSwQI-IjeFykvfGZ3u-26" value="&lt;span style=&quot;color: rgb(0, 0, 0); font-family: Helvetica; font-size: 10px; font-style: normal; font-variant-ligatures: normal; font-variant-caps: normal; font-weight: 400; letter-spacing: normal; orphans: 2; text-align: center; text-indent: 0px; text-transform: none; widows: 2; word-spacing: 0px; -webkit-text-stroke-width: 0px; background-color: rgb(251, 251, 251); text-decoration-thickness: initial; text-decoration-style: initial; text-decoration-color: initial; float: none; display: inline !important;&quot;&gt;1.&amp;nbsp;&lt;/span&gt;Selects a product to add to the cart" style="rounded=1;whiteSpace=wrap;html=1;verticalAlign=middle;" parent="iPqSwQI-IjeFykvfGZ3u-23" vertex="1">
          <mxGeometry x="55.63" y="150" width="160" height="58" as="geometry" />
        </mxCell>
        <mxCell id="iPqSwQI-IjeFykvfGZ3u-28" value="UC07.2 - Add product to cart" style="text;html=1;align=center;verticalAlign=middle;resizable=0;points=[];autosize=1;strokeColor=none;fillColor=none;" parent="iPqSwQI-IjeFykvfGZ3u-23" vertex="1">
          <mxGeometry x="-5" y="20" width="180" height="30" as="geometry" />
        </mxCell>
        <mxCell id="iPqSwQI-IjeFykvfGZ3u-29" value="" style="edgeStyle=orthogonalEdgeStyle;rounded=0;orthogonalLoop=1;jettySize=auto;html=1;" parent="iPqSwQI-IjeFykvfGZ3u-23" source="iPqSwQI-IjeFykvfGZ3u-30" target="iPqSwQI-IjeFykvfGZ3u-25" edge="1">
          <mxGeometry relative="1" as="geometry" />
        </mxCell>
        <mxCell id="iPqSwQI-IjeFykvfGZ3u-30" value="&lt;font style=&quot;font-size: 10px;&quot;&gt;User is logged in&lt;/font&gt;" style="shape=note;size=20;whiteSpace=wrap;html=1;" parent="iPqSwQI-IjeFykvfGZ3u-23" vertex="1">
          <mxGeometry x="25" y="60" width="120" height="50" as="geometry" />
        </mxCell>
        <mxCell id="iPqSwQI-IjeFykvfGZ3u-68" style="edgeStyle=orthogonalEdgeStyle;rounded=0;orthogonalLoop=1;jettySize=auto;html=1;" parent="iPqSwQI-IjeFykvfGZ3u-23" source="iPqSwQI-IjeFykvfGZ3u-64" target="iPqSwQI-IjeFykvfGZ3u-66" edge="1">
          <mxGeometry relative="1" as="geometry" />
        </mxCell>
        <mxCell id="iPqSwQI-IjeFykvfGZ3u-64" value="&lt;font style=&quot;font-size: 10px;&quot;&gt;2.&amp;nbsp;&lt;/font&gt;Enter the quantity they&lt;br/&gt;want to add (default 1)" style="rounded=1;whiteSpace=wrap;html=1;verticalAlign=middle;" parent="iPqSwQI-IjeFykvfGZ3u-23" vertex="1">
          <mxGeometry x="55.629999999999995" y="240" width="158.75" height="58" as="geometry" />
        </mxCell>
        <mxCell id="iPqSwQI-IjeFykvfGZ3u-66" value="&lt;font style=&quot;font-size: 10px;&quot;&gt;3. Click &quot;Add to cart&quot; button&lt;/font&gt;" style="rounded=1;whiteSpace=wrap;html=1;verticalAlign=middle;" parent="iPqSwQI-IjeFykvfGZ3u-23" vertex="1">
          <mxGeometry x="55.629999999999995" y="330" width="158.75" height="58" as="geometry" />
        </mxCell>
        <mxCell id="iPqSwQI-IjeFykvfGZ3u-33" value="System" style="swimlane;whiteSpace=wrap" parent="1" vertex="1">
          <mxGeometry x="960" y="40" width="370" height="570" as="geometry" />
        </mxCell>
        <mxCell id="iPqSwQI-IjeFykvfGZ3u-49" value="" style="edgeStyle=orthogonalEdgeStyle;rounded=0;orthogonalLoop=1;jettySize=auto;html=1;" parent="iPqSwQI-IjeFykvfGZ3u-33" source="iPqSwQI-IjeFykvfGZ3u-50" target="iPqSwQI-IjeFykvfGZ3u-53" edge="1">
          <mxGeometry relative="1" as="geometry" />
        </mxCell>
        <mxCell id="iPqSwQI-IjeFykvfGZ3u-50" value="&lt;font style=&quot;font-size: 10px;&quot;&gt;4. Check the quantity of product&lt;/font&gt;" style="rounded=1;whiteSpace=wrap;html=1;verticalAlign=middle;" parent="iPqSwQI-IjeFykvfGZ3u-33" vertex="1">
          <mxGeometry x="33.75" y="180" width="131.25" height="58" as="geometry" />
        </mxCell>
        <mxCell id="pBIfOtYc9oAZ0GzIeyk_-29" value="" style="edgeStyle=orthogonalEdgeStyle;rounded=0;orthogonalLoop=1;jettySize=auto;html=1;" edge="1" parent="iPqSwQI-IjeFykvfGZ3u-33" source="iPqSwQI-IjeFykvfGZ3u-53" target="iPqSwQI-IjeFykvfGZ3u-56">
          <mxGeometry relative="1" as="geometry" />
        </mxCell>
        <mxCell id="pBIfOtYc9oAZ0GzIeyk_-32" value="" style="edgeStyle=orthogonalEdgeStyle;rounded=0;orthogonalLoop=1;jettySize=auto;html=1;" edge="1" parent="iPqSwQI-IjeFykvfGZ3u-33" source="iPqSwQI-IjeFykvfGZ3u-53" target="iPqSwQI-IjeFykvfGZ3u-54">
          <mxGeometry relative="1" as="geometry" />
        </mxCell>
        <mxCell id="iPqSwQI-IjeFykvfGZ3u-53" value="Is in stock?" style="rhombus;fillColor=#ffffc0;strokeColor=#ff0000;whiteSpace=wrap;fontSize=10;" parent="iPqSwQI-IjeFykvfGZ3u-33" vertex="1">
          <mxGeometry x="201.87" y="189" width="80" height="40" as="geometry" />
        </mxCell>
        <mxCell id="pBIfOtYc9oAZ0GzIeyk_-33" value="" style="edgeStyle=orthogonalEdgeStyle;rounded=0;orthogonalLoop=1;jettySize=auto;html=1;" edge="1" parent="iPqSwQI-IjeFykvfGZ3u-33" source="iPqSwQI-IjeFykvfGZ3u-54" target="pBIfOtYc9oAZ0GzIeyk_-24">
          <mxGeometry relative="1" as="geometry" />
        </mxCell>
        <mxCell id="iPqSwQI-IjeFykvfGZ3u-54" value="&lt;font style=&quot;font-size: 10px;&quot;&gt;4.1. Check product already have in the user&#39;s shopping cart&lt;/font&gt;" style="rounded=1;whiteSpace=wrap;html=1;verticalAlign=middle;" parent="iPqSwQI-IjeFykvfGZ3u-33" vertex="1">
          <mxGeometry x="182.49" y="252" width="118.75" height="58" as="geometry" />
        </mxCell>
        <mxCell id="pBIfOtYc9oAZ0GzIeyk_-23" value="" style="edgeStyle=orthogonalEdgeStyle;rounded=0;orthogonalLoop=1;jettySize=auto;html=1;" edge="1" parent="iPqSwQI-IjeFykvfGZ3u-33" source="iPqSwQI-IjeFykvfGZ3u-56" target="pBIfOtYc9oAZ0GzIeyk_-22">
          <mxGeometry relative="1" as="geometry" />
        </mxCell>
        <mxCell id="iPqSwQI-IjeFykvfGZ3u-56" value="&lt;font style=&quot;font-size: 10px;&quot;&gt;4.2. Display error message&lt;/font&gt;" style="rounded=1;whiteSpace=wrap;html=1;verticalAlign=middle;" parent="iPqSwQI-IjeFykvfGZ3u-33" vertex="1">
          <mxGeometry x="182.49" y="100" width="118.75" height="58" as="geometry" />
        </mxCell>
        <mxCell id="iPqSwQI-IjeFykvfGZ3u-57" value="yes" style="text;html=1;align=center;verticalAlign=middle;resizable=0;points=[];autosize=1;strokeColor=none;fillColor=none;" parent="iPqSwQI-IjeFykvfGZ3u-33" vertex="1">
          <mxGeometry x="241.87" y="229" width="40" height="30" as="geometry" />
        </mxCell>
        <mxCell id="iPqSwQI-IjeFykvfGZ3u-58" value="no" style="text;html=1;align=center;verticalAlign=middle;resizable=0;points=[];autosize=1;strokeColor=none;fillColor=none;" parent="iPqSwQI-IjeFykvfGZ3u-33" vertex="1">
          <mxGeometry x="230" y="160" width="40" height="30" as="geometry" />
        </mxCell>
        <mxCell id="iPqSwQI-IjeFykvfGZ3u-59" value="" style="ellipse;html=1;shape=endState;fillColor=#000000;strokeColor=#ff0000;fontSize=10;" parent="iPqSwQI-IjeFykvfGZ3u-33" vertex="1">
          <mxGeometry x="84.37" y="510" width="30" height="30" as="geometry" />
        </mxCell>
        <mxCell id="pBIfOtYc9oAZ0GzIeyk_-41" value="" style="edgeStyle=orthogonalEdgeStyle;rounded=0;orthogonalLoop=1;jettySize=auto;html=1;" edge="1" parent="iPqSwQI-IjeFykvfGZ3u-33" source="iPqSwQI-IjeFykvfGZ3u-72" target="pBIfOtYc9oAZ0GzIeyk_-38">
          <mxGeometry relative="1" as="geometry" />
        </mxCell>
        <mxCell id="iPqSwQI-IjeFykvfGZ3u-72" value="&lt;font style=&quot;font-size: 10px;&quot;&gt;4.1.1. Update quantity of the product in the user&#39;s cart&lt;br&gt;&lt;/font&gt;" style="rounded=1;whiteSpace=wrap;html=1;verticalAlign=middle;" parent="iPqSwQI-IjeFykvfGZ3u-33" vertex="1">
          <mxGeometry x="47.129999999999995" y="331" width="104.5" height="58" as="geometry" />
        </mxCell>
        <mxCell id="pBIfOtYc9oAZ0GzIeyk_-40" value="" style="edgeStyle=orthogonalEdgeStyle;rounded=0;orthogonalLoop=1;jettySize=auto;html=1;" edge="1" parent="iPqSwQI-IjeFykvfGZ3u-33" source="DOB6De9PXuz2SghbElTi-22" target="pBIfOtYc9oAZ0GzIeyk_-38">
          <mxGeometry relative="1" as="geometry" />
        </mxCell>
        <mxCell id="DOB6De9PXuz2SghbElTi-22" value="&lt;font style=&quot;font-size: 10px;&quot;&gt;&lt;font style=&quot;font-size: 10px;&quot;&gt;4.1.2.&amp;nbsp;&lt;/font&gt;Add the product to the user&#39;s cart&lt;/font&gt;" style="rounded=1;whiteSpace=wrap;html=1;verticalAlign=middle;" parent="iPqSwQI-IjeFykvfGZ3u-33" vertex="1">
          <mxGeometry x="189.61000000000013" y="420" width="104.5" height="58" as="geometry" />
        </mxCell>
        <mxCell id="pBIfOtYc9oAZ0GzIeyk_-22" value="" style="ellipse;html=1;shape=endState;fillColor=#000000;strokeColor=#ff0000;fontSize=10;" vertex="1" parent="iPqSwQI-IjeFykvfGZ3u-33">
          <mxGeometry x="330.0000000000001" y="114" width="30" height="30" as="geometry" />
        </mxCell>
        <mxCell id="pBIfOtYc9oAZ0GzIeyk_-34" value="" style="edgeStyle=orthogonalEdgeStyle;rounded=0;orthogonalLoop=1;jettySize=auto;html=1;" edge="1" parent="iPqSwQI-IjeFykvfGZ3u-33" source="pBIfOtYc9oAZ0GzIeyk_-24" target="iPqSwQI-IjeFykvfGZ3u-72">
          <mxGeometry relative="1" as="geometry" />
        </mxCell>
        <mxCell id="pBIfOtYc9oAZ0GzIeyk_-36" value="" style="edgeStyle=orthogonalEdgeStyle;rounded=0;orthogonalLoop=1;jettySize=auto;html=1;" edge="1" parent="iPqSwQI-IjeFykvfGZ3u-33" source="pBIfOtYc9oAZ0GzIeyk_-24" target="DOB6De9PXuz2SghbElTi-22">
          <mxGeometry relative="1" as="geometry" />
        </mxCell>
        <mxCell id="pBIfOtYc9oAZ0GzIeyk_-24" value="Is in cart?" style="rhombus;fillColor=#ffffc0;strokeColor=#ff0000;whiteSpace=wrap;fontSize=10;" vertex="1" parent="iPqSwQI-IjeFykvfGZ3u-33">
          <mxGeometry x="201.87" y="340" width="80" height="40" as="geometry" />
        </mxCell>
        <mxCell id="pBIfOtYc9oAZ0GzIeyk_-35" value="yes" style="text;html=1;align=center;verticalAlign=middle;resizable=0;points=[];autosize=1;strokeColor=none;fillColor=none;" vertex="1" parent="iPqSwQI-IjeFykvfGZ3u-33">
          <mxGeometry x="160" y="340" width="40" height="30" as="geometry" />
        </mxCell>
        <mxCell id="pBIfOtYc9oAZ0GzIeyk_-42" value="" style="edgeStyle=orthogonalEdgeStyle;rounded=0;orthogonalLoop=1;jettySize=auto;html=1;" edge="1" parent="iPqSwQI-IjeFykvfGZ3u-33" source="pBIfOtYc9oAZ0GzIeyk_-38" target="iPqSwQI-IjeFykvfGZ3u-59">
          <mxGeometry relative="1" as="geometry" />
        </mxCell>
        <mxCell id="pBIfOtYc9oAZ0GzIeyk_-38" value="&lt;font style=&quot;font-size: 10px;&quot;&gt;&lt;font style=&quot;font-size: 10px;&quot;&gt;5.&amp;nbsp;&lt;/font&gt;Display a success message&lt;/font&gt;" style="rounded=1;whiteSpace=wrap;html=1;verticalAlign=middle;" vertex="1" parent="iPqSwQI-IjeFykvfGZ3u-33">
          <mxGeometry x="47.12000000000011" y="420" width="104.5" height="58" as="geometry" />
        </mxCell>
        <mxCell id="iPqSwQI-IjeFykvfGZ3u-69" style="edgeStyle=orthogonalEdgeStyle;rounded=0;orthogonalLoop=1;jettySize=auto;html=1;" parent="1" source="iPqSwQI-IjeFykvfGZ3u-66" target="iPqSwQI-IjeFykvfGZ3u-50" edge="1">
          <mxGeometry relative="1" as="geometry">
            <Array as="points">
              <mxPoint x="940" y="400" />
              <mxPoint x="940" y="249" />
            </Array>
          </mxGeometry>
        </mxCell>
        <mxCell id="iPqSwQI-IjeFykvfGZ3u-77" value="User" style="swimlane;whiteSpace=wrap;labelBackgroundColor=none;" parent="1" vertex="1">
          <mxGeometry x="2120" y="20" width="280" height="580" as="geometry" />
        </mxCell>
        <mxCell id="iPqSwQI-IjeFykvfGZ3u-78" value="" style="edgeStyle=orthogonalEdgeStyle;rounded=0;orthogonalLoop=1;jettySize=auto;html=1;" parent="iPqSwQI-IjeFykvfGZ3u-77" source="iPqSwQI-IjeFykvfGZ3u-79" target="iPqSwQI-IjeFykvfGZ3u-80" edge="1">
          <mxGeometry relative="1" as="geometry">
            <mxPoint x="140" y="82" as="targetPoint" />
            <Array as="points" />
          </mxGeometry>
        </mxCell>
        <mxCell id="iPqSwQI-IjeFykvfGZ3u-79" value="" style="ellipse;shape=startState;fillColor=#000000;strokeColor=#ff0000;" parent="iPqSwQI-IjeFykvfGZ3u-77" vertex="1">
          <mxGeometry x="175" y="75" width="30" height="30" as="geometry" />
        </mxCell>
        <mxCell id="pBIfOtYc9oAZ0GzIeyk_-63" value="" style="edgeStyle=orthogonalEdgeStyle;rounded=0;orthogonalLoop=1;jettySize=auto;html=1;" edge="1" parent="iPqSwQI-IjeFykvfGZ3u-77" source="iPqSwQI-IjeFykvfGZ3u-80" target="iPqSwQI-IjeFykvfGZ3u-87">
          <mxGeometry relative="1" as="geometry" />
        </mxCell>
        <mxCell id="iPqSwQI-IjeFykvfGZ3u-80" value="&lt;font style=&quot;font-size: 10px;&quot;&gt;1. Access to the &quot;Cart&quot; page&lt;/font&gt;" style="rounded=1;whiteSpace=wrap;html=1;verticalAlign=middle;" parent="iPqSwQI-IjeFykvfGZ3u-77" vertex="1">
          <mxGeometry x="70" y="150" width="118.75" height="58" as="geometry" />
        </mxCell>
        <mxCell id="iPqSwQI-IjeFykvfGZ3u-81" value="" style="edgeStyle=orthogonalEdgeStyle;rounded=0;orthogonalLoop=1;jettySize=auto;html=1;" parent="iPqSwQI-IjeFykvfGZ3u-77" source="iPqSwQI-IjeFykvfGZ3u-82" target="iPqSwQI-IjeFykvfGZ3u-79" edge="1">
          <mxGeometry relative="1" as="geometry" />
        </mxCell>
        <mxCell id="iPqSwQI-IjeFykvfGZ3u-82" value="&lt;font style=&quot;font-size: 10px;&quot;&gt;User is logged in and in UC4.1&lt;br&gt;&lt;/font&gt;" style="shape=note;size=20;whiteSpace=wrap;html=1;" parent="iPqSwQI-IjeFykvfGZ3u-77" vertex="1">
          <mxGeometry x="10" y="70" width="130" height="40" as="geometry" />
        </mxCell>
        <mxCell id="iPqSwQI-IjeFykvfGZ3u-83" value="UC07.4 - Remove cart" style="text;html=1;align=center;verticalAlign=middle;resizable=0;points=[];autosize=1;strokeColor=none;fillColor=none;" parent="iPqSwQI-IjeFykvfGZ3u-77" vertex="1">
          <mxGeometry x="15" y="20" width="140" height="30" as="geometry" />
        </mxCell>
        <mxCell id="iPqSwQI-IjeFykvfGZ3u-87" value="&lt;font style=&quot;font-size: 10px;&quot;&gt;2. Select the product(s) and click to &quot;Remove&quot; button&lt;/font&gt;" style="rounded=1;whiteSpace=wrap;html=1;verticalAlign=middle;" parent="iPqSwQI-IjeFykvfGZ3u-77" vertex="1">
          <mxGeometry x="68.13" y="240" width="122.5" height="58" as="geometry" />
        </mxCell>
        <mxCell id="iPqSwQI-IjeFykvfGZ3u-84" value="System" style="swimlane;whiteSpace=wrap" parent="1" vertex="1">
          <mxGeometry x="2400" y="20" width="310" height="580" as="geometry" />
        </mxCell>
        <mxCell id="iPqSwQI-IjeFykvfGZ3u-112" value="" style="edgeStyle=orthogonalEdgeStyle;rounded=0;orthogonalLoop=1;jettySize=auto;html=1;" parent="iPqSwQI-IjeFykvfGZ3u-84" source="iPqSwQI-IjeFykvfGZ3u-108" target="iPqSwQI-IjeFykvfGZ3u-109" edge="1">
          <mxGeometry relative="1" as="geometry">
            <Array as="points" />
          </mxGeometry>
        </mxCell>
        <mxCell id="iPqSwQI-IjeFykvfGZ3u-108" value="&lt;font style=&quot;font-size: 10px;&quot;&gt;3. Check cartexist&lt;/font&gt;" style="rounded=1;whiteSpace=wrap;html=1;verticalAlign=middle;" parent="iPqSwQI-IjeFykvfGZ3u-84" vertex="1">
          <mxGeometry x="93.75" y="140" width="122.5" height="58" as="geometry" />
        </mxCell>
        <mxCell id="pBIfOtYc9oAZ0GzIeyk_-65" style="edgeStyle=orthogonalEdgeStyle;rounded=0;orthogonalLoop=1;jettySize=auto;html=1;" edge="1" parent="iPqSwQI-IjeFykvfGZ3u-84" source="iPqSwQI-IjeFykvfGZ3u-109" target="iPqSwQI-IjeFykvfGZ3u-111">
          <mxGeometry relative="1" as="geometry">
            <Array as="points">
              <mxPoint x="81" y="250" />
            </Array>
          </mxGeometry>
        </mxCell>
        <mxCell id="pBIfOtYc9oAZ0GzIeyk_-66" style="edgeStyle=orthogonalEdgeStyle;rounded=0;orthogonalLoop=1;jettySize=auto;html=1;" edge="1" parent="iPqSwQI-IjeFykvfGZ3u-84" source="iPqSwQI-IjeFykvfGZ3u-109" target="iPqSwQI-IjeFykvfGZ3u-114">
          <mxGeometry relative="1" as="geometry">
            <Array as="points">
              <mxPoint x="230" y="250" />
            </Array>
          </mxGeometry>
        </mxCell>
        <mxCell id="iPqSwQI-IjeFykvfGZ3u-109" value="Is exist?" style="rhombus;fillColor=#ffffc0;strokeColor=#ff0000;whiteSpace=wrap;fontSize=10;" parent="iPqSwQI-IjeFykvfGZ3u-84" vertex="1">
          <mxGeometry x="115" y="230" width="80" height="40" as="geometry" />
        </mxCell>
        <mxCell id="pBIfOtYc9oAZ0GzIeyk_-71" value="" style="edgeStyle=orthogonalEdgeStyle;rounded=0;orthogonalLoop=1;jettySize=auto;html=1;" edge="1" parent="iPqSwQI-IjeFykvfGZ3u-84" source="iPqSwQI-IjeFykvfGZ3u-111" target="pBIfOtYc9oAZ0GzIeyk_-70">
          <mxGeometry relative="1" as="geometry" />
        </mxCell>
        <mxCell id="iPqSwQI-IjeFykvfGZ3u-111" value="&lt;font style=&quot;font-size: 10px;&quot;&gt;3.1. Remove product in cart&lt;/font&gt;" style="rounded=1;whiteSpace=wrap;html=1;verticalAlign=middle;" parent="iPqSwQI-IjeFykvfGZ3u-84" vertex="1">
          <mxGeometry x="20" y="301" width="122.5" height="58" as="geometry" />
        </mxCell>
        <mxCell id="pBIfOtYc9oAZ0GzIeyk_-69" value="" style="edgeStyle=orthogonalEdgeStyle;rounded=0;orthogonalLoop=1;jettySize=auto;html=1;" edge="1" parent="iPqSwQI-IjeFykvfGZ3u-84" source="iPqSwQI-IjeFykvfGZ3u-114" target="pBIfOtYc9oAZ0GzIeyk_-68">
          <mxGeometry relative="1" as="geometry" />
        </mxCell>
        <mxCell id="iPqSwQI-IjeFykvfGZ3u-114" value="&lt;font style=&quot;font-size: 10px;&quot;&gt;3.2. Display error message&lt;/font&gt;" style="rounded=1;whiteSpace=wrap;html=1;verticalAlign=middle;" parent="iPqSwQI-IjeFykvfGZ3u-84" vertex="1">
          <mxGeometry x="170" y="301" width="122.5" height="58" as="geometry" />
        </mxCell>
        <mxCell id="iPqSwQI-IjeFykvfGZ3u-117" value="yes" style="text;html=1;align=center;verticalAlign=middle;resizable=0;points=[];autosize=1;strokeColor=none;fillColor=none;" parent="iPqSwQI-IjeFykvfGZ3u-84" vertex="1">
          <mxGeometry x="80" y="240" width="40" height="30" as="geometry" />
        </mxCell>
        <mxCell id="pBIfOtYc9oAZ0GzIeyk_-67" value="no" style="text;html=1;align=center;verticalAlign=middle;resizable=0;points=[];autosize=1;strokeColor=none;fillColor=none;" vertex="1" parent="iPqSwQI-IjeFykvfGZ3u-84">
          <mxGeometry x="195" y="240" width="40" height="30" as="geometry" />
        </mxCell>
        <mxCell id="pBIfOtYc9oAZ0GzIeyk_-68" value="" style="ellipse;html=1;shape=endState;fillColor=#000000;strokeColor=#ff0000;fontSize=10;" vertex="1" parent="iPqSwQI-IjeFykvfGZ3u-84">
          <mxGeometry x="216.25" y="390" width="30" height="30" as="geometry" />
        </mxCell>
        <mxCell id="pBIfOtYc9oAZ0GzIeyk_-73" value="" style="edgeStyle=orthogonalEdgeStyle;rounded=0;orthogonalLoop=1;jettySize=auto;html=1;" edge="1" parent="iPqSwQI-IjeFykvfGZ3u-84" source="pBIfOtYc9oAZ0GzIeyk_-70" target="pBIfOtYc9oAZ0GzIeyk_-72">
          <mxGeometry relative="1" as="geometry" />
        </mxCell>
        <mxCell id="pBIfOtYc9oAZ0GzIeyk_-70" value="&lt;font style=&quot;font-size: 10px;&quot;&gt;4. Display success message&lt;/font&gt;" style="rounded=1;whiteSpace=wrap;html=1;verticalAlign=middle;" vertex="1" parent="iPqSwQI-IjeFykvfGZ3u-84">
          <mxGeometry x="20" y="390" width="122.5" height="58" as="geometry" />
        </mxCell>
        <mxCell id="pBIfOtYc9oAZ0GzIeyk_-75" value="" style="edgeStyle=orthogonalEdgeStyle;rounded=0;orthogonalLoop=1;jettySize=auto;html=1;" edge="1" parent="iPqSwQI-IjeFykvfGZ3u-84" source="pBIfOtYc9oAZ0GzIeyk_-72" target="pBIfOtYc9oAZ0GzIeyk_-74">
          <mxGeometry relative="1" as="geometry" />
        </mxCell>
        <mxCell id="pBIfOtYc9oAZ0GzIeyk_-72" value="&lt;font style=&quot;font-size: 10px;&quot;&gt;5. Refresh the cart to view the updated&lt;/font&gt;" style="rounded=1;whiteSpace=wrap;html=1;verticalAlign=middle;" vertex="1" parent="iPqSwQI-IjeFykvfGZ3u-84">
          <mxGeometry x="20" y="480" width="122.5" height="58" as="geometry" />
        </mxCell>
        <mxCell id="pBIfOtYc9oAZ0GzIeyk_-74" value="" style="ellipse;html=1;shape=endState;fillColor=#000000;strokeColor=#ff0000;fontSize=10;" vertex="1" parent="iPqSwQI-IjeFykvfGZ3u-84">
          <mxGeometry x="170" y="494" width="30" height="30" as="geometry" />
        </mxCell>
        <mxCell id="pBIfOtYc9oAZ0GzIeyk_-37" value="no" style="text;html=1;align=center;verticalAlign=middle;resizable=0;points=[];autosize=1;strokeColor=none;fillColor=none;" vertex="1" parent="1">
          <mxGeometry x="1190" y="418" width="40" height="30" as="geometry" />
        </mxCell>
        <mxCell id="pBIfOtYc9oAZ0GzIeyk_-46" style="edgeStyle=orthogonalEdgeStyle;rounded=0;orthogonalLoop=1;jettySize=auto;html=1;" edge="1" parent="1" source="pBIfOtYc9oAZ0GzIeyk_-43" target="pBIfOtYc9oAZ0GzIeyk_-45">
          <mxGeometry relative="1" as="geometry">
            <Array as="points">
              <mxPoint x="1640" y="289" />
              <mxPoint x="1640" y="149" />
            </Array>
          </mxGeometry>
        </mxCell>
        <mxCell id="pBIfOtYc9oAZ0GzIeyk_-64" style="edgeStyle=orthogonalEdgeStyle;rounded=0;orthogonalLoop=1;jettySize=auto;html=1;" edge="1" parent="1" source="iPqSwQI-IjeFykvfGZ3u-87" target="iPqSwQI-IjeFykvfGZ3u-108">
          <mxGeometry relative="1" as="geometry">
            <Array as="points">
              <mxPoint x="2360" y="289" />
              <mxPoint x="2360" y="190" />
            </Array>
          </mxGeometry>
        </mxCell>
      </root>
    </mxGraphModel>
  </diagram>
</mxfile>
